<svg width="100" height="100" viewBox="0 0 100 100" xmlns="http://www.w3.org/2000/svg">
  <!-- Circles representing nodes -->
  <circle cx="20" cy="20" r="5" fill="blue"/>
  <circle cx="50" cy="20" r="5" fill="blue"/>
  <circle cx="80" cy="20" r="5" fill="blue"/>
  <circle cx="20" cy="50" r="5" fill="blue"/>
  <circle cx="50" cy="50" r="5" fill="blue"/>
  <circle cx="80" cy="50" r="5" fill="blue"/>
  <circle cx="20" cy="80" r="5" fill="blue"/>
  <circle cx="50" cy="80" r="5" fill="blue"/>
  <circle cx="80" cy="80" r="5" fill="blue"/>
  
  <!-- Lines connecting the nodes to represent a network -->
  <line x1="20" y1="20" x2="50" y2="20" stroke="black" stroke-width="2"/>
  <line x1="50" y1="20" x2="80" y2="20" stroke="black" stroke-width="2"/>
  <line x1="20" y1="20" x2="20" y2="50" stroke="black" stroke-width="2"/>
  <line x1="50" y1="20" x2="50" y2="50" stroke="black" stroke-width="2"/>
  <line x1="80" y1="20" x2="80" y2="50" stroke="black" stroke-width="2"/>
  <line x1="20" y1="50" x2="50" y2="50" stroke="black" stroke-width="2"/>
  <line x1="50" y1="50" x2="80" y2="50" stroke="black" stroke-width="2"/>
  <line x1="20" y1="50" x2="20" y2="80" stroke="black" stroke-width="2"/>
  <line x1="50" y1="50" x2="50" y2="80" stroke="black" stroke-width="2"/>
  <line x1="80" y1="50" x2="80" y2="80" stroke="black" stroke-width="2"/>
  <line x1="20" y1="80" x2="50" y2="80" stroke="black" stroke-width="2"/>
  <line x1="50" y1="80" x2="80" y2="80" stroke="black" stroke-width="2"/>
</svg>
