<svg width="200" height="200" xmlns="http://www.w3.org/2000/svg">
  <!-- Linked List -->
  <text x="10" y="20" font-family="Arial" font-size="12" fill="black">Linked List</text>
  <circle cx="50" cy="50" r="20" fill="blue"/>
  <circle cx="100" cy="50" r="20" fill="blue"/>
  <circle cx="150" cy="50" r="20" fill="blue"/>
  <circle cx="200" cy="50" r="20" fill="blue"/>
  <line x1="70" y1="50" x2="90" y2="50" stroke="black" stroke-width="2"/>
  <line x1="120" y1="50" x2="140" y2="50" stroke="black" stroke-width="2"/>
  <line x1="170" y1="50" x2="190" y2="50" stroke="black" stroke-width="2"/>
  
  <!-- Stack -->
  <text x="10" y="120" font-family="Arial" font-size="12" fill="black">Stack</text>
  <rect x="50" y="130" width="30" height="20" fill="green"/>
  <rect x="50" y="160" width="30" height="20" fill="green"/>
  <rect x="50" y="190" width="30" height="20" fill="green"/>
  
  <!-- Tree -->
  <text x="120" y="120" font-family="Arial" font-size="12" fill="black">Binary Tree</text>
  <circle cx="150" cy="150" r="20" fill="red"/>
  <circle cx="100" cy="200" r="20" fill="red"/>
  <circle cx="200" cy="200" r="20" fill="red"/>
  <line x1="150" y1="150" x2="100" y2="200" stroke="black" stroke-width="2"/>
  <line x1="150" y1="150" x2="200" y2="200" stroke="black" stroke-width="2"/>
</svg>
